<?xml version="1.0" encoding="utf-8"?>
<svg viewBox="0 0 50 50" width="50px" height="50px" style="" xmlns="http://www.w3.org/2000/svg">
  <defs/>
  <path d="M 24.908 2.908 C 12.769 2.908 2.908 12.77 2.908 24.908 C 2.908 35.927 11.035 45.047 21.621 46.637 L 22.769 46.811 L 22.769 29.475 L 17.572 29.475 L 17.572 25.955 L 22.769 25.955 L 22.769 21.281 C 22.769 18.403 23.46 16.508 24.603 15.318 C 25.747 14.129 27.436 13.529 29.787 13.529 C 31.667 13.529 32.398 13.643 33.093 13.728 L 33.093 16.609 L 30.646 16.609 C 29.258 16.609 28.118 17.384 27.527 18.416 C 26.936 19.448 26.752 20.68 26.752 21.936 L 26.752 25.953 L 32.875 25.953 L 32.33 29.473 L 26.752 29.473 L 26.752 46.838 L 27.886 46.684 C 38.622 45.228 46.908 36.035 46.908 24.908 C 46.908 12.77 37.046 2.908 24.908 2.908 Z M 24.908 4.908 C 35.965 4.908 44.908 13.851 44.908 24.908 C 44.908 34.638 37.944 42.64 28.752 44.441 L 28.752 31.473 L 34.045 31.473 L 35.207 23.953 L 28.752 23.953 L 28.752 21.936 C 28.752 20.898 28.941 19.968 29.261 19.41 C 29.581 18.852 29.89 18.609 30.646 18.609 L 35.093 18.609 L 35.093 11.918 L 34.226 11.801 C 33.626 11.72 32.257 11.529 29.787 11.529 C 27.084 11.529 24.763 12.266 23.162 13.932 C 21.56 15.598 20.769 18.078 20.769 21.281 L 20.769 23.955 L 15.572 23.955 L 15.572 31.475 L 20.769 31.475 L 20.769 44.379 C 11.725 42.463 4.908 34.533 4.908 24.908 C 4.908 13.851 13.85 4.908 24.908 4.908 Z" style="fill: rgb(255, 255, 255);"/>
</svg>